<?xml version="1.0" encoding="UTF-8"?>
<svg xmlns="http://www.w3.org/2000/svg" width="800" height="800" className="redes-sociales" viewBox="0 -2 20 20"><path fill-rule="evenodd" d="M6.29 16c7.547 0 11.675-6.15635 11.675-11.49454 0-.17525 0-.34951-.012-.52279.803-.57104 1.496-1.27991 2.047-2.09117-.748.32687-1.543.5415-2.356.63601.856-.50507 1.497-1.29861 1.804-2.23491-.806.47061-1.687.8024-2.606.98061-1.554-1.62647-4.153-1.70523-5.806-.17525-1.065.98651-1.518 2.45742-1.187 3.86039C6.55 4.79492 3.476 3.261 1.392.73762.303 2.58363.86 4.94457 2.663 6.12996 2.01 6.11125 1.371 5.93797.8 5.62489v.05119C.801 7.5989 2.178 9.2549 4.092 9.63591c-.604.16245-1.238.18608-1.852.06892.537 1.64616 2.078 2.77346 3.833 2.80595-1.453 1.12435-3.248 1.73476-5.096 1.7328-.326-.00099-.652-.0197-.977-.05809C1.877 15.37088 4.06 16 6.29 15.99705"></path></svg>
